<svg width="1920" height="960" viewBox="0 0 1920 960" fill="none" xmlns="http://www.w3.org/2000/svg" xmlns:xlink="http://www.w3.org/1999/xlink">
<g clip-path="url(#clip0_125_16)">
<rect width="1920" height="960" fill="url(#paint0_linear_125_16)"/>
<rect x="1071" y="252" width="706" height="751" fill="url(#pattern0_125_16)"/>
<rect x="143" width="892" height="1004" fill="url(#pattern1_125_16)"/>
<path opacity="0.4" d="M1080.43 209V210.656H1076.06V217.688C1076.06 218.28 1076.23 218.72 1076.57 219.008C1076.9 219.296 1077.34 219.44 1077.86 219.44C1078.33 219.44 1078.73 219.36 1079.06 219.2C1079.4 219.04 1079.7 218.824 1079.98 218.552L1080.65 220.16C1080.28 220.496 1079.84 220.76 1079.33 220.952C1078.83 221.144 1078.26 221.24 1077.6 221.24C1076.99 221.24 1076.42 221.136 1075.9 220.928C1075.37 220.704 1074.94 220.36 1074.62 219.896C1074.32 219.416 1074.16 218.792 1074.14 218.024V210.656H1071.74V209H1074.14V206.12L1076.06 205.592V209H1080.43ZM1098.33 209H1100.47L1096.29 221H1094.37L1090.99 211.448L1087.8 221H1085.88L1081.7 209H1083.84L1086.86 218.768L1090.13 209H1092.05L1095.31 218.768L1098.33 209ZM1104.31 206.696C1103.88 206.696 1103.53 206.568 1103.25 206.312C1103 206.04 1102.87 205.688 1102.87 205.256C1102.87 204.824 1103 204.48 1103.25 204.224C1103.53 203.952 1103.88 203.816 1104.31 203.816C1104.74 203.816 1105.09 203.952 1105.34 204.224C1105.61 204.48 1105.75 204.824 1105.75 205.256C1105.75 205.688 1105.61 206.04 1105.34 206.312C1105.09 206.568 1104.74 206.696 1104.31 206.696ZM1105.27 209V221H1103.35V209H1105.27ZM1116.92 209V210.656H1112.56V217.688C1112.56 218.28 1112.72 218.72 1113.06 219.008C1113.4 219.296 1113.83 219.44 1114.36 219.44C1114.82 219.44 1115.22 219.36 1115.56 219.2C1115.89 219.04 1116.2 218.824 1116.47 218.552L1117.14 220.16C1116.77 220.496 1116.33 220.76 1115.82 220.952C1115.32 221.144 1114.75 221.24 1114.09 221.24C1113.48 221.24 1112.92 221.136 1112.39 220.928C1111.86 220.704 1111.44 220.36 1111.12 219.896C1110.81 219.416 1110.65 218.792 1110.64 218.024V210.656H1108.24V209H1110.64V206.12L1112.56 205.592V209H1116.92ZM1125.43 209V210.656H1121.06V217.688C1121.06 218.28 1121.23 218.72 1121.57 219.008C1121.9 219.296 1122.34 219.44 1122.86 219.44C1123.33 219.44 1123.73 219.36 1124.06 219.2C1124.4 219.04 1124.7 218.824 1124.98 218.552L1125.65 220.16C1125.28 220.496 1124.84 220.76 1124.33 220.952C1123.83 221.144 1123.26 221.24 1122.6 221.24C1121.99 221.24 1121.42 221.136 1120.9 220.928C1120.37 220.704 1119.94 220.36 1119.62 219.896C1119.32 219.416 1119.16 218.792 1119.14 218.024V210.656H1116.74V209H1119.14V206.12L1121.06 205.592V209H1125.43ZM1133.3 221.24C1132.17 221.24 1131.15 220.992 1130.25 220.496C1129.37 220 1128.69 219.288 1128.19 218.36C1127.69 217.416 1127.45 216.296 1127.45 215C1127.45 213.704 1127.69 212.592 1128.19 211.664C1128.69 210.72 1129.37 210 1130.23 209.504C1131.09 209.008 1132.08 208.76 1133.18 208.76C1134.3 208.76 1135.25 209 1136.04 209.48C1136.84 209.96 1137.45 210.616 1137.86 211.448C1138.28 212.264 1138.49 213.184 1138.49 214.208C1138.49 214.48 1138.48 214.728 1138.46 214.952C1138.45 215.176 1138.42 215.376 1138.39 215.552H1129.34C1129.44 216.816 1129.83 217.8 1130.52 218.504C1131.21 219.208 1132.12 219.56 1133.25 219.56C1134.13 219.56 1134.85 219.392 1135.39 219.056C1135.95 218.72 1136.4 218.264 1136.73 217.688L1138.25 218.576C1137.8 219.392 1137.15 220.04 1136.3 220.52C1135.47 221 1134.47 221.24 1133.3 221.24ZM1133.13 210.44C1132.13 210.44 1131.29 210.744 1130.64 211.352C1130 211.944 1129.59 212.776 1129.41 213.848H1136.57C1136.52 212.76 1136.18 211.92 1135.56 211.328C1134.93 210.736 1134.13 210.44 1133.13 210.44ZM1142.14 221V209H1143.7L1143.96 210.968C1144.63 209.496 1145.91 208.76 1147.8 208.76C1148.01 208.76 1148.23 208.776 1148.47 208.808C1148.73 208.84 1148.95 208.904 1149.12 209L1148.79 210.752C1148.61 210.688 1148.42 210.64 1148.21 210.608C1148 210.576 1147.71 210.56 1147.32 210.56C1146.83 210.56 1146.32 210.704 1145.81 210.992C1145.31 211.28 1144.9 211.72 1144.56 212.312C1144.23 212.888 1144.06 213.624 1144.06 214.52V221H1142.14ZM1168.94 225.68C1166.94 225.68 1165.18 225.264 1163.66 224.432C1162.15 223.6 1160.98 222.432 1160.15 220.928C1159.32 219.408 1158.9 217.648 1158.9 215.648C1158.9 214.096 1159.16 212.68 1159.67 211.4C1160.2 210.12 1160.94 209.016 1161.88 208.088C1162.82 207.144 1163.94 206.424 1165.22 205.928C1166.5 205.416 1167.9 205.16 1169.44 205.16C1170.94 205.16 1172.28 205.408 1173.45 205.904C1174.62 206.384 1175.6 207.056 1176.4 207.92C1177.22 208.784 1177.83 209.776 1178.25 210.896C1178.66 212.016 1178.87 213.2 1178.87 214.448C1178.87 215.84 1178.64 217.04 1178.18 218.048C1177.71 219.056 1177.11 219.832 1176.38 220.376C1175.64 220.92 1174.85 221.192 1174 221.192C1173.14 221.192 1172.5 220.968 1172.08 220.52C1171.68 220.072 1171.51 219.504 1171.58 218.816C1171.22 219.488 1170.7 220.024 1169.99 220.424C1169.29 220.824 1168.56 221.024 1167.81 221.024C1166.98 221.024 1166.24 220.824 1165.6 220.424C1164.98 220.024 1164.49 219.472 1164.14 218.768C1163.78 218.048 1163.61 217.224 1163.61 216.296C1163.61 215.096 1163.84 214.016 1164.3 213.056C1164.78 212.08 1165.43 211.312 1166.25 210.752C1167.08 210.176 1168.02 209.888 1169.08 209.888C1170.02 209.888 1170.81 210.128 1171.43 210.608C1172.07 211.088 1172.5 211.728 1172.7 212.528L1173.28 210.104H1174.98L1173.16 217.928C1173.13 218.088 1173.1 218.24 1173.06 218.384C1173.05 218.512 1173.04 218.64 1173.04 218.768C1173.04 219.216 1173.15 219.512 1173.38 219.656C1173.62 219.784 1173.88 219.848 1174.17 219.848C1174.74 219.848 1175.28 219.648 1175.78 219.248C1176.27 218.848 1176.67 218.248 1176.98 217.448C1177.3 216.632 1177.46 215.632 1177.46 214.448C1177.46 212.944 1177.13 211.6 1176.47 210.416C1175.83 209.232 1174.91 208.296 1173.71 207.608C1172.53 206.92 1171.13 206.576 1169.51 206.576C1167.75 206.576 1166.19 206.952 1164.83 207.704C1163.47 208.44 1162.41 209.488 1161.64 210.848C1160.89 212.208 1160.51 213.808 1160.51 215.648C1160.51 217.44 1160.88 218.976 1161.62 220.256C1162.37 221.536 1163.38 222.52 1164.64 223.208C1165.92 223.912 1167.35 224.264 1168.94 224.264C1170.3 224.264 1171.37 224.088 1172.15 223.736C1172.94 223.4 1173.59 223.032 1174.12 222.632L1174.96 223.808C1174.53 224.144 1174.04 224.448 1173.5 224.72C1172.97 225.008 1172.34 225.24 1171.6 225.416C1170.86 225.592 1169.98 225.68 1168.94 225.68ZM1168.36 219.56C1169.03 219.56 1169.65 219.344 1170.21 218.912C1170.77 218.464 1171.21 217.864 1171.53 217.112C1171.86 216.344 1172.03 215.488 1172.03 214.544C1172.03 213.584 1171.77 212.816 1171.24 212.24C1170.73 211.664 1170.05 211.376 1169.2 211.376C1168.45 211.376 1167.78 211.592 1167.18 212.024C1166.59 212.456 1166.13 213.04 1165.79 213.776C1165.47 214.512 1165.31 215.344 1165.31 216.272C1165.31 217.328 1165.58 218.144 1166.1 218.72C1166.63 219.28 1167.38 219.56 1168.36 219.56ZM1182.54 226.04V209H1184.22L1184.34 211.112C1184.71 210.408 1185.26 209.84 1185.98 209.408C1186.71 208.976 1187.55 208.76 1188.5 208.76C1189.47 208.76 1190.37 209.008 1191.18 209.504C1192.02 210 1192.68 210.712 1193.18 211.64C1193.67 212.568 1193.92 213.688 1193.92 215C1193.92 216.296 1193.66 217.416 1193.15 218.36C1192.66 219.288 1191.99 220 1191.16 220.496C1190.33 220.992 1189.42 221.24 1188.42 221.24C1187.53 221.24 1186.74 221.048 1186.05 220.664C1185.36 220.264 1184.83 219.752 1184.46 219.128V226.04H1182.54ZM1188.23 219.56C1189.42 219.56 1190.34 219.144 1190.99 218.312C1191.66 217.48 1192 216.376 1192 215C1192 213.624 1191.67 212.52 1191.02 211.688C1190.38 210.856 1189.47 210.44 1188.3 210.44C1187.15 210.44 1186.22 210.856 1185.52 211.688C1184.82 212.52 1184.46 213.624 1184.46 215C1184.46 216.376 1184.81 217.48 1185.5 218.312C1186.18 219.144 1187.1 219.56 1188.23 219.56ZM1202.56 208.76C1203.7 208.76 1204.7 209.008 1205.56 209.504C1206.44 210 1207.13 210.72 1207.62 211.664C1208.12 212.592 1208.37 213.704 1208.37 215C1208.37 216.296 1208.12 217.416 1207.62 218.36C1207.13 219.288 1206.44 220 1205.56 220.496C1204.7 220.992 1203.7 221.24 1202.56 221.24C1201.44 221.24 1200.44 220.992 1199.56 220.496C1198.68 220 1197.99 219.288 1197.5 218.36C1197 217.416 1196.75 216.296 1196.75 215C1196.75 213.704 1197 212.592 1197.5 211.664C1197.99 210.72 1198.68 210 1199.56 209.504C1200.44 209.008 1201.44 208.76 1202.56 208.76ZM1202.56 210.416C1201.34 210.416 1200.39 210.824 1199.7 211.64C1199.02 212.456 1198.67 213.576 1198.67 215C1198.67 216.424 1199.02 217.544 1199.7 218.36C1200.39 219.176 1201.34 219.584 1202.56 219.584C1203.78 219.584 1204.73 219.176 1205.42 218.36C1206.1 217.544 1206.45 216.424 1206.45 215C1206.45 213.576 1206.1 212.456 1205.42 211.64C1204.73 210.824 1203.78 210.416 1202.56 210.416ZM1216.95 208.76C1218.09 208.76 1219.09 209.008 1219.95 209.504C1220.83 210 1221.52 210.72 1222.01 211.664C1222.51 212.592 1222.76 213.704 1222.76 215C1222.76 216.296 1222.51 217.416 1222.01 218.36C1221.52 219.288 1220.83 220 1219.95 220.496C1219.09 220.992 1218.09 221.24 1216.95 221.24C1215.83 221.24 1214.83 220.992 1213.95 220.496C1213.07 220 1212.38 219.288 1211.89 218.36C1211.39 217.416 1211.14 216.296 1211.14 215C1211.14 213.704 1211.39 212.592 1211.89 211.664C1212.38 210.72 1213.07 210 1213.95 209.504C1214.83 209.008 1215.83 208.76 1216.95 208.76ZM1216.95 210.416C1215.73 210.416 1214.78 210.824 1214.09 211.64C1213.41 212.456 1213.06 213.576 1213.06 215C1213.06 216.424 1213.41 217.544 1214.09 218.36C1214.78 219.176 1215.73 219.584 1216.95 219.584C1218.17 219.584 1219.12 219.176 1219.81 218.36C1220.49 217.544 1220.84 216.424 1220.84 215C1220.84 213.576 1220.49 212.456 1219.81 211.64C1219.12 210.824 1218.17 210.416 1216.95 210.416ZM1227.33 206.696C1226.9 206.696 1226.55 206.568 1226.28 206.312C1226.02 206.04 1225.89 205.688 1225.89 205.256C1225.89 204.824 1226.02 204.48 1226.28 204.224C1226.55 203.952 1226.9 203.816 1227.33 203.816C1227.76 203.816 1228.11 203.952 1228.36 204.224C1228.64 204.48 1228.77 204.824 1228.77 205.256C1228.77 205.688 1228.64 206.04 1228.36 206.312C1228.11 206.568 1227.76 206.696 1227.33 206.696ZM1228.29 209V222.224C1228.29 223.216 1228.1 224 1227.72 224.576C1227.33 225.152 1226.86 225.56 1226.3 225.8C1225.74 226.04 1225.19 226.16 1224.64 226.16C1224.15 226.16 1223.69 226.08 1223.28 225.92C1222.86 225.776 1222.52 225.592 1222.24 225.368L1222.65 223.544C1222.88 223.752 1223.16 223.928 1223.49 224.072C1223.83 224.216 1224.2 224.288 1224.62 224.288C1225.13 224.288 1225.55 224.12 1225.87 223.784C1226.2 223.448 1226.37 222.864 1226.37 222.032V209H1228.29ZM1239.76 213.248C1239.76 212.352 1239.52 211.664 1239.04 211.184C1238.56 210.688 1237.88 210.44 1237 210.44C1236.16 210.44 1235.46 210.624 1234.88 210.992C1234.31 211.344 1233.88 211.92 1233.61 212.72L1232.05 211.76C1232.37 210.864 1232.96 210.144 1233.83 209.6C1234.69 209.04 1235.76 208.76 1237.04 208.76C1237.91 208.76 1238.69 208.912 1239.4 209.216C1240.1 209.504 1240.65 209.952 1241.05 210.56C1241.47 211.152 1241.68 211.92 1241.68 212.864V218.672C1241.68 219.248 1241.98 219.536 1242.59 219.536C1242.89 219.536 1243.19 219.496 1243.48 219.416L1243.38 220.928C1243.06 221.088 1242.64 221.168 1242.13 221.168C1241.54 221.168 1241.03 221.024 1240.6 220.736C1240.18 220.448 1239.91 220.008 1239.78 219.416C1239.36 220.04 1238.8 220.504 1238.08 220.808C1237.36 221.096 1236.64 221.24 1235.94 221.24C1235.24 221.24 1234.58 221.12 1233.97 220.88C1233.36 220.64 1232.88 220.28 1232.51 219.8C1232.16 219.304 1231.98 218.696 1231.98 217.976C1231.98 217.08 1232.28 216.344 1232.87 215.768C1233.48 215.176 1234.32 214.776 1235.39 214.568L1239.76 213.704V213.248ZM1233.95 217.88C1233.95 218.376 1234.14 218.784 1234.52 219.104C1234.92 219.408 1235.48 219.56 1236.2 219.56C1236.83 219.56 1237.4 219.456 1237.93 219.248C1238.48 219.024 1238.92 218.696 1239.25 218.264C1239.59 217.816 1239.76 217.248 1239.76 216.56V215.288L1236.28 216.008C1235.49 216.168 1234.91 216.392 1234.52 216.68C1234.14 216.968 1233.95 217.368 1233.95 217.88ZM1256.65 223.328V225.128H1243.71V223.328H1256.65ZM1258.88 226.04V209H1260.56L1260.68 211.112C1261.05 210.408 1261.59 209.84 1262.31 209.408C1263.05 208.976 1263.89 208.76 1264.83 208.76C1265.81 208.76 1266.7 209.008 1267.52 209.504C1268.35 210 1269.02 210.712 1269.51 211.64C1270.01 212.568 1270.26 213.688 1270.26 215C1270.26 216.296 1270 217.416 1269.49 218.36C1268.99 219.288 1268.33 220 1267.5 220.496C1266.66 220.992 1265.75 221.24 1264.76 221.24C1263.86 221.24 1263.07 221.048 1262.38 220.664C1261.7 220.264 1261.17 219.752 1260.8 219.128V226.04H1258.88ZM1264.57 219.56C1265.75 219.56 1266.67 219.144 1267.33 218.312C1268 217.48 1268.34 216.376 1268.34 215C1268.34 213.624 1268.01 212.52 1267.35 211.688C1266.71 210.856 1265.81 210.44 1264.64 210.44C1263.49 210.44 1262.56 210.856 1261.86 211.688C1261.15 212.52 1260.8 213.624 1260.8 215C1260.8 216.376 1261.14 217.48 1261.83 218.312C1262.52 219.144 1263.43 219.56 1264.57 219.56ZM1274.56 209L1277.73 213.44L1280.85 209H1283.11L1278.76 214.88L1283.18 221H1280.83L1277.52 216.368L1274.11 221H1271.88L1276.48 214.952L1272.16 209H1274.56Z" fill="black"/>
</g>
<defs>
<pattern id="pattern0_125_16" patternContentUnits="objectBoundingBox" width="1" height="1">
<use xlink:href="#image0_125_16" transform="scale(0.000708215 0.000665779)"/>
</pattern>
<pattern id="pattern1_125_16" patternContentUnits="objectBoundingBox" width="1" height="1">
<use xlink:href="#image1_125_16" transform="scale(0.000862069 0.000765902)"/>
</pattern>
<linearGradient id="paint0_linear_125_16" x1="960" y1="0" x2="960" y2="960" gradientUnits="userSpaceOnUse">
<stop stop-color="#90A6AE"/>
<stop offset="1" stop-color="#FFE8E8"/>
</linearGradient>
<clipPath id="clip0_125_16">
<rect width="1920" height="960" fill="white"/>
</clipPath>
</defs>
</svg>
